<svg width="42" height="42" viewBox="0 0 42 42" fill="none" xmlns="http://www.w3.org/2000/svg">
<g clip-path="url(#clip0_38_89)">
<path d="M24.9507 11.1107L17.7558 17.1481L22.3606 22.6358L29.5555 16.5987L24.9507 11.1107L24.9507 11.1107ZM22.1535 25.0025L15.3889 16.941L25.1578 8.74377L31.9224 16.8058L22.1535 25.0025Z" fill="#406370"/>
<path d="M21.7763 26.0438C22.1316 25.7456 22.178 25.2157 21.8798 24.8605L15.482 17.2354C15.1838 16.8801 14.6536 16.8337 14.2983 17.1319L12.8888 18.3146C12.5335 18.6128 12.4871 19.1426 12.7853 19.4979L19.1835 27.123C19.4817 27.4783 20.0116 27.5247 20.3668 27.2265L21.7763 26.0438L21.7763 26.0438ZM22.8562 27.3307L21.4467 28.5134C20.3807 29.408 18.7913 29.2689 17.8966 28.2029L11.4983 20.5778C10.6037 19.5118 10.7428 17.9223 11.8089 17.0276L13.2184 15.8449C14.2843 14.9503 15.8743 15.0894 16.769 16.1555L23.1667 23.7805C24.0614 24.8465 23.9222 26.436 22.8562 27.3306V27.3307ZM34.451 15.4084C34.8063 15.1103 34.8526 14.5804 34.5545 14.2251L28.1567 6.60014C27.8585 6.24478 27.3282 6.19839 26.9729 6.49657L25.5635 7.67926C25.2081 7.97748 25.1617 8.50732 25.4599 8.8626L31.8581 16.4877C32.1564 16.843 32.6862 16.8894 33.0415 16.5912L34.451 15.4085L34.451 15.4084ZM35.5309 16.6954L34.1214 17.8781C33.0554 18.7727 31.4659 18.6336 30.5712 17.5676L24.1729 9.9425C23.2783 8.8765 23.4174 7.28703 24.4835 6.39231L25.893 5.20963C26.959 4.31499 28.5489 4.45412 29.4436 5.5202L35.8413 13.1452C36.736 14.2112 36.5968 15.8007 35.5309 16.6953V16.6954ZM27.6659 19.8354L40.3709 34.2292C40.5172 34.395 40.4987 34.6425 40.3299 34.7841L38.7896 36.0766C38.6204 36.2184 38.3732 36.1937 38.2359 36.0214L26.2666 21.0096C25.9774 20.6468 25.4488 20.5872 25.0861 20.8765C24.7234 21.1657 24.6638 21.6942 24.953 22.057L36.9222 37.0686C37.6481 37.9795 38.9767 38.1122 39.8693 37.3637L41.4096 36.0712C42.3022 35.3227 42.4016 33.991 41.6304 33.1175L28.9255 18.7237C28.6185 18.3759 28.0877 18.3428 27.7399 18.6498C27.392 18.9568 27.359 19.4876 27.6659 19.8354V19.8354ZM16.38 36.1387C16.8438 36.1387 17.22 35.7626 17.22 35.2987V34.4424C17.22 33.9785 16.8438 33.6024 16.38 33.6024H2.52C2.05615 33.6024 1.68 33.9785 1.68 34.4424V35.2987C1.68 35.7626 2.05615 36.1387 2.52 36.1387H16.38ZM16.38 37.8187H2.52C1.1283 37.8187 0 36.6904 0 35.2987V34.4424C0 33.0507 1.1283 31.9224 2.52 31.9224H16.38C17.7717 31.9224 18.9 33.0507 18.9 34.4424V35.2987C18.9 36.6904 17.7717 37.8187 16.38 37.8187Z" fill="#406370"/>
<path d="M14.6999 31.9387C15.1638 31.9387 15.5399 31.5626 15.5399 31.0987V30.2424C15.5399 29.7785 15.1638 29.4024 14.6999 29.4024H4.19993C3.73609 29.4024 3.35993 29.7785 3.35993 30.2424V31.0987C3.35993 31.5626 3.73609 31.9387 4.19993 31.9387H14.6999ZM14.6999 33.6187H4.19993C2.80823 33.6187 1.67993 32.4904 1.67993 31.0987V30.2424C1.67993 28.8507 2.80823 27.7224 4.19993 27.7224H14.6999C16.0916 27.7224 17.2199 28.8507 17.2199 30.2424V31.0987C17.2199 32.4904 16.0916 33.6187 14.6999 33.6187V33.6187Z" fill="#406370"/>
</g>
<defs>
<clipPath id="clip0_38_89">
<rect width="42" height="42" fill="white"/>
</clipPath>
</defs>
</svg>
