<svg width="43" height="43" viewBox="0 0 43 43" fill="none" xmlns="http://www.w3.org/2000/svg">
<path d="M21.5023 9.87441C24.4957 9.87441 27.4218 10.762 29.9108 12.4249C32.3998 14.0879 34.3397 16.4515 35.4854 19.217C36.6311 21.9824 36.9311 25.0255 36.3475 27.9614C35.7638 30.8973 34.3227 33.5942 32.2063 35.7111C30.09 37.8281 27.3935 39.2699 24.4577 39.8544C21.522 40.4389 18.4789 40.1398 15.7131 38.9948C12.9474 37.8499 10.5832 35.9107 8.91953 33.4222C7.25589 30.9337 6.36749 28.0077 6.36665 25.0144C6.37042 21.0009 7.96613 17.1529 10.8037 14.3145C13.6412 11.4762 17.4889 9.87931 21.5023 9.87441M21.5023 7.02588C17.9454 7.02616 14.4685 8.08118 11.5112 10.0575C8.55391 12.0338 6.24906 14.8427 4.8881 18.1289C3.52713 21.4151 3.17119 25.0311 3.86527 28.5196C4.55936 32.0081 6.27229 35.2124 8.78748 37.7274C11.3027 40.2424 14.5072 41.9551 17.9957 42.6489C21.4843 43.3427 25.1002 42.9865 28.3863 41.6253C31.6724 40.264 34.4811 37.9589 36.4571 35.0014C38.4332 32.044 39.4879 28.567 39.4879 25.0101C39.4879 22.6483 39.0227 20.3096 38.1188 18.1276C37.215 15.9455 35.8901 13.9629 34.22 12.2929C32.5498 10.6229 30.5671 9.29822 28.385 8.39451C26.2029 7.4908 23.8642 7.02569 21.5023 7.02588V7.02588Z" fill="#406370"/>
<path d="M21.5024 26.4386C21.3153 26.4391 21.13 26.4025 20.9571 26.3308C20.7843 26.2592 20.6274 26.154 20.4955 26.0213L13.5522 19.0765C13.2927 18.8079 13.1492 18.4482 13.1524 18.0747C13.1556 17.7013 13.3054 17.3441 13.5695 17.08C13.8336 16.8159 14.1908 16.6661 14.5643 16.6629C14.9377 16.6597 15.2975 16.8032 15.5661 17.0626L22.5094 24.0074C22.7085 24.2066 22.8441 24.4603 22.899 24.7365C22.9539 25.0128 22.9258 25.2991 22.818 25.5593C22.7102 25.8196 22.5277 26.0419 22.2935 26.1985C22.0594 26.355 21.7841 26.4385 21.5024 26.4386Z" fill="#406370"/>
<path d="M33.2243 14.8366C32.9426 14.8365 32.6673 14.753 32.4331 14.5965C32.199 14.44 32.0165 14.2176 31.9087 13.9573C31.8009 13.6971 31.7727 13.4108 31.8276 13.1346C31.8826 12.8583 32.0182 12.6046 32.2173 12.4054L36.3947 8.22516C36.6633 7.96572 37.0231 7.82213 37.3965 7.82537C37.7699 7.82862 38.1272 7.97839 38.3912 8.24246C38.6553 8.50653 38.8051 8.86377 38.8083 9.23721C38.8116 9.61064 38.668 9.97046 38.4086 10.2391L34.2312 14.4193C33.9642 14.6864 33.602 14.8365 33.2243 14.8366V14.8366Z" fill="#406370"/>
<path d="M25.4789 9.85163C25.1012 9.85163 24.7389 9.70156 24.4718 9.43446C24.2047 9.16735 24.0547 8.80511 24.0547 8.42737V5.20712C24.0539 4.58182 23.8052 3.98231 23.363 3.54015C22.9209 3.09799 22.3214 2.84929 21.6961 2.84853H21.3087C20.6834 2.84929 20.0839 3.09799 19.6417 3.54015C19.1996 3.98231 18.9508 4.58182 18.9501 5.20712V8.18953C18.9501 8.56727 18.8 8.92951 18.5329 9.19661C18.2658 9.46372 17.9036 9.61379 17.5258 9.61379C17.1481 9.61379 16.7858 9.46372 16.5187 9.19661C16.2516 8.92951 16.1016 8.56727 16.1016 8.18953V5.20712C16.1034 3.82669 16.6527 2.50331 17.6288 1.52719C18.6049 0.551076 19.9283 0.00188404 21.3087 0H21.6961C23.0765 0.00188404 24.3999 0.551076 25.376 1.52719C26.3521 2.50331 26.9013 3.82669 26.9032 5.20712V8.42737C26.9032 8.80511 26.7531 9.16735 26.486 9.43446C26.2189 9.70156 25.8567 9.85163 25.4789 9.85163Z" fill="#406370"/>
</svg>
