<svg width="103" height="24" viewBox="0 0 103 24" fill="none" xmlns="http://www.w3.org/2000/svg">
<path d="M0.167969 1.67188H7.71191C9.33301 1.67188 10.7148 1.91602 11.8574 2.4043C13 2.89258 13.874 3.61523 14.4795 4.57227C15.0947 5.51953 15.4023 6.69141 15.4023 8.08789C15.4023 9.15234 15.207 10.0898 14.8164 10.9004C14.4258 11.7109 13.874 12.3945 13.1611 12.9512C12.4482 13.498 11.5986 13.9229 10.6123 14.2256L9.49902 14.7676H2.7168L2.6875 11.8525H7.77051C8.64941 11.8525 9.38184 11.6963 9.96777 11.3838C10.5537 11.0713 10.9932 10.6465 11.2861 10.1094C11.5889 9.5625 11.7402 8.94727 11.7402 8.26367C11.7402 7.52148 11.5938 6.87695 11.3008 6.33008C11.0176 5.77344 10.5781 5.34863 9.98242 5.05566C9.38672 4.75293 8.62988 4.60156 7.71191 4.60156H3.84473V23H0.167969V1.67188ZM12.3408 23L7.33105 13.4199L11.1836 13.4053L16.2666 22.8096V23H12.3408ZM25.7002 23.293C24.5283 23.293 23.4688 23.1025 22.5215 22.7217C21.584 22.3311 20.7832 21.7891 20.1191 21.0957C19.4648 20.4023 18.9619 19.5869 18.6104 18.6494C18.2588 17.7119 18.083 16.7012 18.083 15.6172V15.0312C18.083 13.791 18.2637 12.668 18.625 11.6621C18.9863 10.6562 19.4893 9.79688 20.1338 9.08398C20.7783 8.36133 21.54 7.80957 22.4189 7.42871C23.2979 7.04785 24.25 6.85742 25.2754 6.85742C26.4082 6.85742 27.3994 7.04785 28.249 7.42871C29.0986 7.80957 29.8018 8.34668 30.3584 9.04004C30.9248 9.72363 31.3447 10.5391 31.6182 11.4863C31.9014 12.4336 32.043 13.4785 32.043 14.6211V16.1299H19.7969V13.5957H28.5566V13.3174C28.5371 12.6826 28.4102 12.0869 28.1758 11.5303C27.9512 10.9736 27.6045 10.5244 27.1357 10.1826C26.667 9.84082 26.042 9.66992 25.2607 9.66992C24.6748 9.66992 24.1523 9.79688 23.6934 10.0508C23.2441 10.2949 22.8682 10.6514 22.5654 11.1201C22.2627 11.5889 22.0283 12.1553 21.8623 12.8193C21.7061 13.4736 21.6279 14.2109 21.6279 15.0312V15.6172C21.6279 16.3105 21.7207 16.9551 21.9062 17.5508C22.1016 18.1367 22.3848 18.6494 22.7559 19.0889C23.127 19.5283 23.5762 19.875 24.1035 20.1289C24.6309 20.373 25.2314 20.4951 25.9053 20.4951C26.7549 20.4951 27.5117 20.3242 28.1758 19.9824C28.8398 19.6406 29.416 19.1572 29.9043 18.5322L31.7646 20.334C31.4229 20.832 30.9785 21.3105 30.4316 21.7695C29.8848 22.2188 29.2158 22.585 28.4248 22.8682C27.6436 23.1514 26.7354 23.293 25.7002 23.293Z" fill="black"/>
<path d="M43.6885 18.708C43.6885 18.3564 43.6006 18.0391 43.4248 17.7559C43.249 17.4629 42.9121 17.1992 42.4141 16.9648C41.9258 16.7305 41.2031 16.5156 40.2461 16.3203C39.4062 16.1348 38.6348 15.915 37.9316 15.6611C37.2383 15.3975 36.6426 15.0801 36.1445 14.709C35.6465 14.3379 35.2607 13.8984 34.9873 13.3906C34.7139 12.8828 34.5771 12.2969 34.5771 11.6328C34.5771 10.9883 34.7188 10.3779 35.002 9.80176C35.2852 9.22559 35.6904 8.71777 36.2178 8.27832C36.7451 7.83887 37.3848 7.49219 38.1367 7.23828C38.8984 6.98438 39.748 6.85742 40.6855 6.85742C42.0137 6.85742 43.1514 7.08203 44.0986 7.53125C45.0557 7.9707 45.7881 8.57129 46.2959 9.33301C46.8037 10.085 47.0576 10.9346 47.0576 11.8818H43.5273C43.5273 11.4619 43.4199 11.0713 43.2051 10.71C43 10.3389 42.6875 10.041 42.2676 9.81641C41.8477 9.58203 41.3203 9.46484 40.6855 9.46484C40.0801 9.46484 39.5771 9.5625 39.1768 9.75781C38.7861 9.94336 38.4932 10.1875 38.2979 10.4902C38.1123 10.793 38.0195 11.125 38.0195 11.4863C38.0195 11.75 38.0684 11.9893 38.166 12.2041C38.2734 12.4092 38.4492 12.5996 38.6934 12.7754C38.9375 12.9414 39.2695 13.0977 39.6895 13.2441C40.1191 13.3906 40.6562 13.5322 41.3008 13.6689C42.5117 13.9229 43.5518 14.25 44.4209 14.6504C45.2998 15.041 45.9736 15.5488 46.4424 16.1738C46.9111 16.7891 47.1455 17.5703 47.1455 18.5176C47.1455 19.2207 46.9941 19.8652 46.6914 20.4512C46.3984 21.0273 45.9688 21.5303 45.4023 21.96C44.8359 22.3799 44.1572 22.707 43.3662 22.9414C42.585 23.1758 41.7061 23.293 40.7295 23.293C39.2939 23.293 38.0781 23.0391 37.082 22.5312C36.0859 22.0137 35.3291 21.3545 34.8115 20.5537C34.3037 19.7432 34.0498 18.9033 34.0498 18.0342H37.4629C37.502 18.6885 37.6826 19.2109 38.0049 19.6016C38.3369 19.9824 38.7471 20.2607 39.2354 20.4365C39.7334 20.6025 40.2461 20.6855 40.7734 20.6855C41.4082 20.6855 41.9404 20.6025 42.3701 20.4365C42.7998 20.2607 43.127 20.0264 43.3516 19.7334C43.5762 19.4307 43.6885 19.0889 43.6885 18.708ZM49.5625 15.251V14.9141C49.5625 13.7715 49.7285 12.7119 50.0605 11.7354C50.3926 10.749 50.8711 9.89453 51.4961 9.17188C52.1309 8.43945 52.9023 7.87305 53.8105 7.47266C54.7285 7.0625 55.7637 6.85742 56.916 6.85742C58.0781 6.85742 59.1133 7.0625 60.0215 7.47266C60.9395 7.87305 61.7158 8.43945 62.3506 9.17188C62.9854 9.89453 63.4688 10.749 63.8008 11.7354C64.1328 12.7119 64.2988 13.7715 64.2988 14.9141V15.251C64.2988 16.3936 64.1328 17.4531 63.8008 18.4297C63.4688 19.4062 62.9854 20.2607 62.3506 20.9932C61.7158 21.7158 60.9443 22.2822 60.0361 22.6924C59.1279 23.0928 58.0977 23.293 56.9453 23.293C55.7832 23.293 54.7432 23.0928 53.8252 22.6924C52.917 22.2822 52.1455 21.7158 51.5107 20.9932C50.876 20.2607 50.3926 19.4062 50.0605 18.4297C49.7285 17.4531 49.5625 16.3936 49.5625 15.251ZM53.0928 14.9141V15.251C53.0928 15.9639 53.166 16.6377 53.3125 17.2725C53.459 17.9072 53.6885 18.4639 54.001 18.9424C54.3135 19.4209 54.7139 19.7969 55.2021 20.0703C55.6904 20.3438 56.2715 20.4805 56.9453 20.4805C57.5996 20.4805 58.166 20.3438 58.6445 20.0703C59.1328 19.7969 59.5332 19.4209 59.8457 18.9424C60.1582 18.4639 60.3877 17.9072 60.5342 17.2725C60.6904 16.6377 60.7686 15.9639 60.7686 15.251V14.9141C60.7686 14.2109 60.6904 13.5469 60.5342 12.9219C60.3877 12.2871 60.1533 11.7256 59.8311 11.2373C59.5186 10.749 59.1182 10.3682 58.6299 10.0947C58.1514 9.81152 57.5801 9.66992 56.916 9.66992C56.252 9.66992 55.6758 9.81152 55.1875 10.0947C54.709 10.3682 54.3135 10.749 54.001 11.2373C53.6885 11.7256 53.459 12.2871 53.3125 12.9219C53.166 13.5469 53.0928 14.2109 53.0928 14.9141ZM71.0371 0.5V23H67.4922V0.5H71.0371ZM80.0605 20.2021L83.9424 7.15039H87.6045L82.0967 23H79.8115L80.0605 20.2021ZM77.0869 7.15039L81.042 20.2607L81.2324 23H78.9473L73.4102 7.15039H77.0869ZM96.5693 23.293C95.3975 23.293 94.3379 23.1025 93.3906 22.7217C92.4531 22.3311 91.6523 21.7891 90.9883 21.0957C90.334 20.4023 89.8311 19.5869 89.4795 18.6494C89.1279 17.7119 88.9521 16.7012 88.9521 15.6172V15.0312C88.9521 13.791 89.1328 12.668 89.4941 11.6621C89.8555 10.6562 90.3584 9.79688 91.0029 9.08398C91.6475 8.36133 92.4092 7.80957 93.2881 7.42871C94.167 7.04785 95.1191 6.85742 96.1445 6.85742C97.2773 6.85742 98.2686 7.04785 99.1182 7.42871C99.9678 7.80957 100.671 8.34668 101.228 9.04004C101.794 9.72363 102.214 10.5391 102.487 11.4863C102.771 12.4336 102.912 13.4785 102.912 14.6211V16.1299H90.666V13.5957H99.4258V13.3174C99.4062 12.6826 99.2793 12.0869 99.0449 11.5303C98.8203 10.9736 98.4736 10.5244 98.0049 10.1826C97.5361 9.84082 96.9111 9.66992 96.1299 9.66992C95.5439 9.66992 95.0215 9.79688 94.5625 10.0508C94.1133 10.2949 93.7373 10.6514 93.4346 11.1201C93.1318 11.5889 92.8975 12.1553 92.7314 12.8193C92.5752 13.4736 92.4971 14.2109 92.4971 15.0312V15.6172C92.4971 16.3105 92.5898 16.9551 92.7754 17.5508C92.9707 18.1367 93.2539 18.6494 93.625 19.0889C93.9961 19.5283 94.4453 19.875 94.9727 20.1289C95.5 20.373 96.1006 20.4951 96.7744 20.4951C97.624 20.4951 98.3809 20.3242 99.0449 19.9824C99.709 19.6406 100.285 19.1572 100.773 18.5322L102.634 20.334C102.292 20.832 101.848 21.3105 101.301 21.7695C100.754 22.2188 100.085 22.585 99.2939 22.8682C98.5127 23.1514 97.6045 23.293 96.5693 23.293Z" fill="#D15555"/>
</svg>
